<svg id="Layer_1" data-name="Layer 1" xmlns="http://www.w3.org/2000/svg" viewBox="0 0 633.68 1371.56">
  <g>
    <g id="Group_137" data-name="Group 137">
      <path id="wave-3" d="M363,1366,268,851.93c-5.42-29.39-15-88.18-40.46-146.89s-85-112.23-85.39-171.06c.14-58.83,76-114.53,96.21-173.45,19.85-58.92,14.15-128.72-11.07-187.44C202.42,114.38,140.44,58.31,115.68,29L90.53-.3.41.11,0,1366Z" transform="translate(0 2.64)" fill="#d9eaf7"/>
    </g>
    <g id="Group_137-2" data-name="Group 137" opacity="0.62">
      <path id="wave-3-2" data-name="wave-3" d="M514.65,1367.47,386.32,852.35C379,822.9,366.05,764,332.37,705S220.92,592,219.81,533.11c-.39-58.84,97.64-113.84,123.36-172.59C368.4,301.77,360.34,231.9,327,172.92,294.19,114,213.13,57.29,180.68,27.74L147.74-1.81,31-2,43,1364Z" transform="translate(0 2.64)" fill="#d9eaf7" opacity="0.7"/>
    </g>
    <g id="Group_137-3" data-name="Group 137" opacity="0.4">
      <path id="wave-3-3" data-name="wave-3" d="M633.68,1368.92,489.36,853.3c-8.24-29.48-22.82-88.43-60.44-147.53S304.75,592.3,303.31,533.45c-.63-58.86,108.05-113.52,136.41-172.19,27.82-58.67,18.62-128.58-18.59-187.67-36.67-59.09-126.9-116-163-145.71L221.4-1.79l-130-.85,18.5,1366.49Z" transform="translate(0 2.64)" fill="#d9eaf7"/>
    </g>
  </g>
</svg>
