<svg id="Layer_1" data-name="Layer 1" xmlns="http://www.w3.org/2000/svg" viewBox="0 0 1450.17 1664.16">
  <g>
    <path d="M1439.8,990.13l-68.74,33.41-271.44,127.75-325.73,153.3L448.16,1457.9,176.73,1585.65-.2,1680.38V1350.62l65.65-1.39c65.49-1.76,197.06-4,312.32-40.9C493.29,1272,592.5,1201,687.57,1121.19c94.82-80.33,185.51-169.43,287.15-235.28,87.56-56.12,403.91-251.35,465.08-274.14" transform="translate(5.09 -528.62)" fill="#e77104" opacity="0.56"/>
    <path d="M-.46,1814.42l68.79-33.3L340,1653.82l326-152.76,326-152.77L1263.59,1221l177.09-94.44-.55,329.76-65.66,1.28c-65.49,1.65-197.06,3.67-312.39,40.38-115.57,36.16-214.9,107-310.1,186.63-95,80.17-185.8,169.12-287.54,234.8-87.65,56-404.33,250.69-465.53,273.38" transform="translate(5.09 -528.62)" fill="#e77104" opacity="0.52"/>
    <path d="M1440,1083.26l-68.74,33.41-271.44,127.75L774.1,1397.72,448.37,1551,176.93,1678.78,0,1773.51V1443.75l65.66-1.39c65.49-1.76,197.06-4,312.32-40.9,115.51-36.35,214.72-107.36,309.8-187.14C782.6,1134,873.29,1044.89,974.92,979c87.57-56.12,403.92-251.35,465.08-274.14" transform="translate(5.09 -528.62)" fill="#e77104"/>
    <path d="M.85,1664.57l68.56-33.77,270.74-129.23L665,1346.51l324.89-155.07,270.74-129.22,176.42-95.69,1.78,329.75-65.65,1.75c-65.47,2.11-197,5.07-312.09,42.59-115.32,37-214.14,108.52-308.78,188.82-94.38,80.84-184.59,170.43-285.87,236.83-87.25,56.6-402.54,253.54-463.58,276.66" transform="translate(5.09 -528.62)" fill="#e77104"/>
    <path d="M1439.8,907l-68.74,33.41-271.44,127.75-325.73,153.3L448.16,1374.75,176.73,1502.5-.2,1597.23V1267.47l65.65-1.39c65.49-1.76,197.06-4,312.32-40.9,115.52-36.35,214.73-107.36,309.8-187.14,94.82-80.33,185.51-169.43,287.15-235.28,87.56-56.12,403.91-251.35,465.08-274.14" transform="translate(5.09 -528.62)" fill="#e77104" opacity="0.56"/>
    <path d="M-1.46,1746.26l69.05-32.74,272.65-125.15L667.42,1438.2,994.61,1288l272.65-125.15,177.83-93-3.16,329.74-65.67.76c-65.5,1.13-197.09,2.11-312.7,37.9C947.7,1473.5,847.82,1543.55,752,1622.42c-95.58,79.41-187.12,167.64-289.38,232.51-88.1,55.28-406.31,247.48-467.69,269.68" transform="translate(5.09 -528.62)" fill="#e77104" opacity="0.56"/>
  </g>
</svg>
