<svg xmlns="http://www.w3.org/2000/svg" width="1098.753" height="267.801" viewBox="0 0 1098.753 267.801">
  <g id="Group_131" data-name="Group 131" transform="translate(1097.313 858.298) rotate(180)">
    <path id="wave" d="M0,32l36.625,4.928c36.625,5.3,109.875,14.6,183.125,39.705s146.5,64.161,219.751,64.44c73.25-.279,146.5-39.333,219.751-59.511C732.5,61.756,805.752,61.756,879,86.583c73.25,24.455,146.5,74.668,183.126,99.124l36.625,24.827V299.8H0Z" transform="translate(-1.44 558.497)" fill="#abcfea" opacity="0.701"/>
    <path id="wave-2" data-name="wave" d="M0,32l36.625,3.058C73.25,38.347,146.5,44.116,219.751,59.695S366.251,99.505,439.5,99.679c73.25-.173,146.5-24.406,219.751-36.926C732.5,50.463,805.752,50.463,879,65.868c73.25,15.174,146.5,46.331,183.126,61.5l36.625,15.405v55.389H0Z" transform="translate(-1.44 660.13)" fill="#e77104"/>
    <path id="wave-3" data-name="wave" d="M0,32l36.625,1.315C73.25,34.729,146.5,37.21,219.751,43.909S366.251,61.028,439.5,61.1c73.25-.074,146.5-10.495,219.751-15.879,73.25-5.285,146.5-5.285,219.751,1.34,73.25,6.525,146.5,19.923,183.126,26.448l36.625,6.624v23.818H0Z" transform="translate(-1.44 754.844)" fill="#8652e8"/>
  </g>
</svg>
