<svg xmlns="http://www.w3.org/2000/svg" width="1098.753" height="259.191" viewBox="0 0 1098.753 259.191">
  <g id="Group_136" data-name="Group 136" transform="translate(1.44 -574)">
    <path id="wave" d="M0,32l36.625,4.77C73.25,41.9,146.5,50.9,219.751,75.2s146.5,62.1,219.751,62.368c73.25-.27,146.5-38.069,219.751-57.6C732.5,60.8,805.752,60.8,879,84.828c73.25,23.669,146.5,72.268,183.126,95.937l36.625,24.029v86.4H0Z" transform="translate(-1.44 542)" fill="#8652e8" opacity="0.851"/>
    <path id="wave-2" data-name="wave" d="M0,32l36.625,3.253C73.25,38.752,146.5,44.89,219.751,61.464S366.251,103.818,439.5,104c73.25-.184,146.5-25.965,219.751-39.285C732.5,51.643,805.752,51.643,879,68.032c73.25,16.144,146.5,49.291,183.126,65.434l36.625,16.389v58.928H0Z" transform="translate(-1.44 624.408)" fill="#bbd5e7"/>
    <path id="wave-3" data-name="wave" d="M0,32l36.625,1.315C73.25,34.729,146.5,37.21,219.751,43.909S366.251,61.028,439.5,61.1c73.25-.074,146.5-10.495,219.751-15.879,73.25-5.285,146.5-5.285,219.751,1.34,73.25,6.525,146.5,19.923,183.126,26.448l36.625,6.624v23.818H0Z" transform="translate(-1.44 729.738)" fill="#e77104" opacity="0.897"/>
  </g>
</svg>
